<mxfile host="app.diagrams.net" agent="Mozilla/5.0 (Macintosh; Intel Mac OS X 10_15_7) AppleWebKit/537.36 (KHTML, like Gecko) Chrome/131.0.0.0 Safari/537.36" version="25.0.3" pages="2">
  <diagram name="系统架构" id="ftUjD33QRdSBt27RrCPe">
    <mxGraphModel dx="1464" dy="587" grid="0" gridSize="10" guides="1" tooltips="1" connect="1" arrows="1" fold="1" page="0" pageScale="1" pageWidth="1200" pageHeight="1920" math="1" shadow="0">
      <root>
        <mxCell id="0" />
        <mxCell id="1" parent="0" />
        <mxCell id="SfoKXVMf_dNQG8K6i2Fp-1" value="" style="rounded=1;whiteSpace=wrap;html=1;fillColor=none;" vertex="1" parent="1">
          <mxGeometry x="242" y="424" width="247" height="100" as="geometry" />
        </mxCell>
        <mxCell id="SfoKXVMf_dNQG8K6i2Fp-2" value="" style="rounded=1;whiteSpace=wrap;html=1;fillColor=none;" vertex="1" parent="1">
          <mxGeometry x="-19" y="423" width="248" height="100" as="geometry" />
        </mxCell>
        <mxCell id="SfoKXVMf_dNQG8K6i2Fp-3" value="" style="edgeStyle=orthogonalEdgeStyle;rounded=0;orthogonalLoop=1;jettySize=auto;html=1;" edge="1" parent="1" source="SfoKXVMf_dNQG8K6i2Fp-4" target="SfoKXVMf_dNQG8K6i2Fp-8">
          <mxGeometry relative="1" as="geometry" />
        </mxCell>
        <mxCell id="SfoKXVMf_dNQG8K6i2Fp-4" value="模式" style="rounded=0;whiteSpace=wrap;html=1;" vertex="1" parent="1">
          <mxGeometry x="14.25" y="381" width="62.5" height="34" as="geometry" />
        </mxCell>
        <mxCell id="SfoKXVMf_dNQG8K6i2Fp-5" value="" style="edgeStyle=orthogonalEdgeStyle;rounded=0;orthogonalLoop=1;jettySize=auto;html=1;" edge="1" parent="1" source="SfoKXVMf_dNQG8K6i2Fp-8" target="SfoKXVMf_dNQG8K6i2Fp-11">
          <mxGeometry relative="1" as="geometry" />
        </mxCell>
        <mxCell id="SfoKXVMf_dNQG8K6i2Fp-6" value="" style="edgeStyle=orthogonalEdgeStyle;rounded=0;orthogonalLoop=1;jettySize=auto;html=1;" edge="1" parent="1" source="SfoKXVMf_dNQG8K6i2Fp-8" target="SfoKXVMf_dNQG8K6i2Fp-11">
          <mxGeometry relative="1" as="geometry" />
        </mxCell>
        <mxCell id="SfoKXVMf_dNQG8K6i2Fp-7" style="edgeStyle=orthogonalEdgeStyle;rounded=0;orthogonalLoop=1;jettySize=auto;html=1;entryX=0;entryY=0.5;entryDx=0;entryDy=0;" edge="1" parent="1" source="SfoKXVMf_dNQG8K6i2Fp-8" target="SfoKXVMf_dNQG8K6i2Fp-13">
          <mxGeometry relative="1" as="geometry" />
        </mxCell>
        <mxCell id="SfoKXVMf_dNQG8K6i2Fp-8" value="模式解析器" style="rounded=0;whiteSpace=wrap;html=1;" vertex="1" parent="1">
          <mxGeometry y="459" width="91" height="40" as="geometry" />
        </mxCell>
        <mxCell id="SfoKXVMf_dNQG8K6i2Fp-9" value="离线" style="text;html=1;align=center;verticalAlign=middle;resizable=0;points=[];autosize=1;strokeColor=none;fillColor=none;" vertex="1" parent="1">
          <mxGeometry x="4" y="424" width="42" height="26" as="geometry" />
        </mxCell>
        <mxCell id="SfoKXVMf_dNQG8K6i2Fp-10" style="edgeStyle=orthogonalEdgeStyle;rounded=0;orthogonalLoop=1;jettySize=auto;html=1;" edge="1" parent="1" source="SfoKXVMf_dNQG8K6i2Fp-11" target="SfoKXVMf_dNQG8K6i2Fp-18">
          <mxGeometry relative="1" as="geometry" />
        </mxCell>
        <mxCell id="SfoKXVMf_dNQG8K6i2Fp-11" value="基础模式" style="rounded=0;whiteSpace=wrap;html=1;" vertex="1" parent="1">
          <mxGeometry x="128" y="431" width="80" height="40" as="geometry" />
        </mxCell>
        <mxCell id="SfoKXVMf_dNQG8K6i2Fp-12" style="edgeStyle=orthogonalEdgeStyle;rounded=0;orthogonalLoop=1;jettySize=auto;html=1;exitX=1;exitY=0.5;exitDx=0;exitDy=0;" edge="1" parent="1" source="SfoKXVMf_dNQG8K6i2Fp-13" target="SfoKXVMf_dNQG8K6i2Fp-20">
          <mxGeometry relative="1" as="geometry" />
        </mxCell>
        <mxCell id="SfoKXVMf_dNQG8K6i2Fp-13" value="延迟计算约束" style="rounded=0;whiteSpace=wrap;html=1;" vertex="1" parent="1">
          <mxGeometry x="128" y="480" width="80" height="40" as="geometry" />
        </mxCell>
        <mxCell id="SfoKXVMf_dNQG8K6i2Fp-14" style="edgeStyle=orthogonalEdgeStyle;rounded=0;orthogonalLoop=1;jettySize=auto;html=1;exitX=0.5;exitY=1;exitDx=0;exitDy=0;entryX=0.5;entryY=0;entryDx=0;entryDy=0;" edge="1" parent="1" source="SfoKXVMf_dNQG8K6i2Fp-15" target="SfoKXVMf_dNQG8K6i2Fp-18">
          <mxGeometry relative="1" as="geometry" />
        </mxCell>
        <mxCell id="SfoKXVMf_dNQG8K6i2Fp-15" value="数据流" style="rounded=0;whiteSpace=wrap;html=1;" vertex="1" parent="1">
          <mxGeometry x="323.5" y="381" width="43.5" height="34" as="geometry" />
        </mxCell>
        <mxCell id="SfoKXVMf_dNQG8K6i2Fp-16" value="在线" style="text;html=1;align=center;verticalAlign=middle;resizable=0;points=[];autosize=1;strokeColor=none;fillColor=none;" vertex="1" parent="1">
          <mxGeometry x="253" y="424" width="42" height="26" as="geometry" />
        </mxCell>
        <mxCell id="SfoKXVMf_dNQG8K6i2Fp-17" value="" style="edgeStyle=orthogonalEdgeStyle;rounded=0;orthogonalLoop=1;jettySize=auto;html=1;exitX=1;exitY=0.5;exitDx=0;exitDy=0;" edge="1" parent="1" source="SfoKXVMf_dNQG8K6i2Fp-18" target="SfoKXVMf_dNQG8K6i2Fp-19">
          <mxGeometry relative="1" as="geometry">
            <mxPoint x="81" y="612" as="sourcePoint" />
            <mxPoint x="112" y="612" as="targetPoint" />
          </mxGeometry>
        </mxCell>
        <mxCell id="SfoKXVMf_dNQG8K6i2Fp-18" value="`NFA_b`" style="rounded=0;whiteSpace=wrap;html=1;" vertex="1" parent="1">
          <mxGeometry x="307.5" y="434" width="74.5" height="34" as="geometry" />
        </mxCell>
        <mxCell id="SfoKXVMf_dNQG8K6i2Fp-26" style="edgeStyle=orthogonalEdgeStyle;rounded=0;orthogonalLoop=1;jettySize=auto;html=1;entryX=1;entryY=0.5;entryDx=0;entryDy=0;" edge="1" parent="1" source="SfoKXVMf_dNQG8K6i2Fp-19" target="SfoKXVMf_dNQG8K6i2Fp-20">
          <mxGeometry relative="1" as="geometry" />
        </mxCell>
        <mxCell id="SfoKXVMf_dNQG8K6i2Fp-19" value="基础模式解解集" style="rounded=0;whiteSpace=wrap;html=1;" vertex="1" parent="1">
          <mxGeometry x="404" y="434" width="71" height="34" as="geometry" />
        </mxCell>
        <mxCell id="SfoKXVMf_dNQG8K6i2Fp-20" value="基础模式解解集展开计算" style="rounded=0;whiteSpace=wrap;html=1;" vertex="1" parent="1">
          <mxGeometry x="332" y="483" width="75.5" height="34" as="geometry" />
        </mxCell>
        <mxCell id="SfoKXVMf_dNQG8K6i2Fp-22" value="满足模式的事件序列" style="rounded=0;whiteSpace=wrap;html=1;" vertex="1" parent="1">
          <mxGeometry x="334.25" y="540" width="71" height="34" as="geometry" />
        </mxCell>
        <mxCell id="SfoKXVMf_dNQG8K6i2Fp-23" style="edgeStyle=orthogonalEdgeStyle;rounded=0;orthogonalLoop=1;jettySize=auto;html=1;" edge="1" parent="1" source="SfoKXVMf_dNQG8K6i2Fp-20" target="SfoKXVMf_dNQG8K6i2Fp-22">
          <mxGeometry relative="1" as="geometry" />
        </mxCell>
      </root>
    </mxGraphModel>
  </diagram>
  <diagram id="4-MrbjAaQ699RsdmxL0Z" name="研究框架">
    <mxGraphModel dx="1533" dy="864" grid="0" gridSize="10" guides="1" tooltips="1" connect="1" arrows="1" fold="1" page="0" pageScale="1" pageWidth="1200" pageHeight="1920" math="1" shadow="0">
      <root>
        <mxCell id="0" />
        <mxCell id="1" parent="0" />
        <mxCell id="ZFAhumgFLEnGLtVaevDZ-22" value="" style="rounded=0;whiteSpace=wrap;html=1;fillColor=none;" vertex="1" parent="1">
          <mxGeometry x="-290" y="-211" width="150" height="400" as="geometry" />
        </mxCell>
        <mxCell id="ZFAhumgFLEnGLtVaevDZ-17" style="edgeStyle=orthogonalEdgeStyle;rounded=0;orthogonalLoop=1;jettySize=auto;html=1;" edge="1" parent="1" source="ZFAhumgFLEnGLtVaevDZ-1" target="ZFAhumgFLEnGLtVaevDZ-14">
          <mxGeometry relative="1" as="geometry" />
        </mxCell>
        <mxCell id="ZFAhumgFLEnGLtVaevDZ-1" value="数&lt;div&gt;据&lt;/div&gt;&lt;div&gt;流&lt;/div&gt;" style="rounded=0;whiteSpace=wrap;html=1;horizontal=1;" vertex="1" parent="1">
          <mxGeometry x="-606" y="-48" width="30" height="100" as="geometry" />
        </mxCell>
        <mxCell id="ZFAhumgFLEnGLtVaevDZ-7" style="edgeStyle=orthogonalEdgeStyle;rounded=0;orthogonalLoop=1;jettySize=auto;html=1;" edge="1" parent="1" source="ZFAhumgFLEnGLtVaevDZ-3" target="ZFAhumgFLEnGLtVaevDZ-6">
          <mxGeometry relative="1" as="geometry" />
        </mxCell>
        <mxCell id="ZFAhumgFLEnGLtVaevDZ-3" value="模式" style="rounded=0;whiteSpace=wrap;html=1;horizontal=1;" vertex="1" parent="1">
          <mxGeometry x="-603" y="-210" width="30" height="100" as="geometry" />
        </mxCell>
        <mxCell id="ZFAhumgFLEnGLtVaevDZ-4" value="" style="rounded=0;whiteSpace=wrap;html=1;fillColor=none;" vertex="1" parent="1">
          <mxGeometry x="-566" y="-211" width="276" height="400" as="geometry" />
        </mxCell>
        <mxCell id="ZFAhumgFLEnGLtVaevDZ-5" value="基于自动机的&lt;div&gt;模式基础解集识别&lt;/div&gt;&lt;div&gt;（第三章）&lt;/div&gt;" style="rounded=0;whiteSpace=wrap;html=1;dashed=1;dashPattern=1 2;" vertex="1" parent="1">
          <mxGeometry x="-566" y="-271" width="276" height="60" as="geometry" />
        </mxCell>
        <mxCell id="ZFAhumgFLEnGLtVaevDZ-12" style="edgeStyle=orthogonalEdgeStyle;rounded=0;orthogonalLoop=1;jettySize=auto;html=1;" edge="1" parent="1" source="ZFAhumgFLEnGLtVaevDZ-6" target="ZFAhumgFLEnGLtVaevDZ-10">
          <mxGeometry relative="1" as="geometry" />
        </mxCell>
        <mxCell id="ZFAhumgFLEnGLtVaevDZ-13" style="edgeStyle=orthogonalEdgeStyle;rounded=0;orthogonalLoop=1;jettySize=auto;html=1;entryX=0.5;entryY=0;entryDx=0;entryDy=0;" edge="1" parent="1" source="ZFAhumgFLEnGLtVaevDZ-6" target="ZFAhumgFLEnGLtVaevDZ-11">
          <mxGeometry relative="1" as="geometry" />
        </mxCell>
        <mxCell id="ZFAhumgFLEnGLtVaevDZ-59" style="edgeStyle=orthogonalEdgeStyle;rounded=0;orthogonalLoop=1;jettySize=auto;html=1;exitX=1;exitY=0.5;exitDx=0;exitDy=0;entryX=0;entryY=0.5;entryDx=0;entryDy=0;" edge="1" parent="1" source="ZFAhumgFLEnGLtVaevDZ-6" target="ZFAhumgFLEnGLtVaevDZ-58">
          <mxGeometry relative="1" as="geometry" />
        </mxCell>
        <mxCell id="ZFAhumgFLEnGLtVaevDZ-6" value="模式解析" style="rounded=0;whiteSpace=wrap;html=1;" vertex="1" parent="1">
          <mxGeometry x="-512.5" y="-180" width="80" height="40" as="geometry" />
        </mxCell>
        <mxCell id="ZFAhumgFLEnGLtVaevDZ-15" style="edgeStyle=orthogonalEdgeStyle;rounded=0;orthogonalLoop=1;jettySize=auto;html=1;entryX=0.5;entryY=0;entryDx=0;entryDy=0;" edge="1" parent="1" source="ZFAhumgFLEnGLtVaevDZ-10" target="ZFAhumgFLEnGLtVaevDZ-14">
          <mxGeometry relative="1" as="geometry" />
        </mxCell>
        <mxCell id="ZFAhumgFLEnGLtVaevDZ-10" value="基础约束" style="rounded=0;whiteSpace=wrap;html=1;" vertex="1" parent="1">
          <mxGeometry x="-560" y="-105" width="80" height="40" as="geometry" />
        </mxCell>
        <mxCell id="ZFAhumgFLEnGLtVaevDZ-16" style="edgeStyle=orthogonalEdgeStyle;rounded=0;orthogonalLoop=1;jettySize=auto;html=1;" edge="1" parent="1" source="ZFAhumgFLEnGLtVaevDZ-11" target="ZFAhumgFLEnGLtVaevDZ-14">
          <mxGeometry relative="1" as="geometry" />
        </mxCell>
        <mxCell id="ZFAhumgFLEnGLtVaevDZ-11" value="延迟计算约束" style="rounded=0;whiteSpace=wrap;html=1;" vertex="1" parent="1">
          <mxGeometry x="-469" y="-105" width="80" height="40" as="geometry" />
        </mxCell>
        <mxCell id="ZFAhumgFLEnGLtVaevDZ-20" style="edgeStyle=orthogonalEdgeStyle;rounded=0;orthogonalLoop=1;jettySize=auto;html=1;entryX=0.5;entryY=0;entryDx=0;entryDy=0;" edge="1" parent="1" source="ZFAhumgFLEnGLtVaevDZ-14" target="ZFAhumgFLEnGLtVaevDZ-18">
          <mxGeometry relative="1" as="geometry">
            <Array as="points">
              <mxPoint x="-473" y="42" />
              <mxPoint x="-520" y="42" />
            </Array>
          </mxGeometry>
        </mxCell>
        <mxCell id="ZFAhumgFLEnGLtVaevDZ-21" style="edgeStyle=orthogonalEdgeStyle;rounded=0;orthogonalLoop=1;jettySize=auto;html=1;entryX=0.5;entryY=0;entryDx=0;entryDy=0;" edge="1" parent="1" source="ZFAhumgFLEnGLtVaevDZ-14" target="ZFAhumgFLEnGLtVaevDZ-19">
          <mxGeometry relative="1" as="geometry" />
        </mxCell>
        <mxCell id="ZFAhumgFLEnGLtVaevDZ-14" value="`NFA_b`" style="rounded=0;whiteSpace=wrap;html=1;" vertex="1" parent="1">
          <mxGeometry x="-512.5" y="-18" width="80" height="40" as="geometry" />
        </mxCell>
        <mxCell id="ZFAhumgFLEnGLtVaevDZ-31" style="edgeStyle=orthogonalEdgeStyle;rounded=0;orthogonalLoop=1;jettySize=auto;html=1;exitX=1;exitY=0.5;exitDx=0;exitDy=0;" edge="1" parent="1" source="ZFAhumgFLEnGLtVaevDZ-18" target="ZFAhumgFLEnGLtVaevDZ-30">
          <mxGeometry relative="1" as="geometry" />
        </mxCell>
        <mxCell id="ZFAhumgFLEnGLtVaevDZ-78" style="edgeStyle=orthogonalEdgeStyle;rounded=0;orthogonalLoop=1;jettySize=auto;html=1;entryX=0;entryY=0.5;entryDx=0;entryDy=0;" edge="1" parent="1" source="ZFAhumgFLEnGLtVaevDZ-18" target="ZFAhumgFLEnGLtVaevDZ-73">
          <mxGeometry relative="1" as="geometry">
            <Array as="points">
              <mxPoint x="-520" y="173" />
              <mxPoint x="-124" y="173" />
              <mxPoint x="-124" y="-81" />
            </Array>
          </mxGeometry>
        </mxCell>
        <mxCell id="ZFAhumgFLEnGLtVaevDZ-18" value="模式基础解&lt;div&gt;解集&lt;/div&gt;" style="rounded=0;whiteSpace=wrap;html=1;" vertex="1" parent="1">
          <mxGeometry x="-560" y="116" width="80" height="40" as="geometry" />
        </mxCell>
        <mxCell id="ZFAhumgFLEnGLtVaevDZ-65" style="edgeStyle=orthogonalEdgeStyle;rounded=0;orthogonalLoop=1;jettySize=auto;html=1;entryX=0;entryY=0.5;entryDx=0;entryDy=0;" edge="1" parent="1" source="ZFAhumgFLEnGLtVaevDZ-19" target="ZFAhumgFLEnGLtVaevDZ-26">
          <mxGeometry relative="1" as="geometry">
            <Array as="points">
              <mxPoint x="-282" y="81" />
              <mxPoint x="-282" y="-81" />
            </Array>
          </mxGeometry>
        </mxCell>
        <mxCell id="ZFAhumgFLEnGLtVaevDZ-19" value="延迟计算&lt;div&gt;约束集&lt;/div&gt;" style="rounded=0;whiteSpace=wrap;html=1;" vertex="1" parent="1">
          <mxGeometry x="-471" y="61" width="80" height="40" as="geometry" />
        </mxCell>
        <mxCell id="ZFAhumgFLEnGLtVaevDZ-23" value="基于树的&lt;span style=&quot;background-color: initial;&quot;&gt;模式基础解&lt;/span&gt;&lt;div&gt;&lt;div&gt;展开及延迟约束计算&lt;/div&gt;&lt;div&gt;（第四章）&lt;/div&gt;&lt;/div&gt;" style="rounded=0;whiteSpace=wrap;html=1;dashed=1;dashPattern=1 2;" vertex="1" parent="1">
          <mxGeometry x="-290" y="-271" width="150" height="60" as="geometry" />
        </mxCell>
        <mxCell id="ZFAhumgFLEnGLtVaevDZ-34" style="edgeStyle=orthogonalEdgeStyle;rounded=0;orthogonalLoop=1;jettySize=auto;html=1;" edge="1" parent="1" source="ZFAhumgFLEnGLtVaevDZ-26" target="ZFAhumgFLEnGLtVaevDZ-33">
          <mxGeometry relative="1" as="geometry" />
        </mxCell>
        <mxCell id="ZFAhumgFLEnGLtVaevDZ-26" value="约束求解&lt;div&gt;计划&lt;/div&gt;" style="rounded=0;whiteSpace=wrap;html=1;" vertex="1" parent="1">
          <mxGeometry x="-254" y="-101" width="80" height="40" as="geometry" />
        </mxCell>
        <mxCell id="ZFAhumgFLEnGLtVaevDZ-64" style="edgeStyle=orthogonalEdgeStyle;rounded=0;orthogonalLoop=1;jettySize=auto;html=1;entryX=0;entryY=0.5;entryDx=0;entryDy=0;" edge="1" parent="1" source="ZFAhumgFLEnGLtVaevDZ-30" target="ZFAhumgFLEnGLtVaevDZ-26">
          <mxGeometry relative="1" as="geometry" />
        </mxCell>
        <mxCell id="ZFAhumgFLEnGLtVaevDZ-30" value="模式基础解" style="rounded=0;whiteSpace=wrap;html=1;" vertex="1" parent="1">
          <mxGeometry x="-389" y="116" width="80" height="40" as="geometry" />
        </mxCell>
        <mxCell id="ZFAhumgFLEnGLtVaevDZ-38" style="edgeStyle=orthogonalEdgeStyle;rounded=0;orthogonalLoop=1;jettySize=auto;html=1;" edge="1" parent="1" source="ZFAhumgFLEnGLtVaevDZ-33" target="ZFAhumgFLEnGLtVaevDZ-37">
          <mxGeometry relative="1" as="geometry" />
        </mxCell>
        <mxCell id="ZFAhumgFLEnGLtVaevDZ-33" value="约束求解器" style="rounded=0;whiteSpace=wrap;html=1;" vertex="1" parent="1">
          <mxGeometry x="-254" y="-14" width="80" height="40" as="geometry" />
        </mxCell>
        <mxCell id="ZFAhumgFLEnGLtVaevDZ-37" value="复杂事件" style="rounded=0;whiteSpace=wrap;html=1;" vertex="1" parent="1">
          <mxGeometry x="-254" y="73" width="80" height="40" as="geometry" />
        </mxCell>
        <mxCell id="ZFAhumgFLEnGLtVaevDZ-60" style="edgeStyle=orthogonalEdgeStyle;rounded=0;orthogonalLoop=1;jettySize=auto;html=1;" edge="1" parent="1" source="ZFAhumgFLEnGLtVaevDZ-58" target="ZFAhumgFLEnGLtVaevDZ-26">
          <mxGeometry relative="1" as="geometry" />
        </mxCell>
        <mxCell id="ZFAhumgFLEnGLtVaevDZ-77" style="edgeStyle=orthogonalEdgeStyle;rounded=0;orthogonalLoop=1;jettySize=auto;html=1;" edge="1" parent="1" source="ZFAhumgFLEnGLtVaevDZ-58" target="ZFAhumgFLEnGLtVaevDZ-73">
          <mxGeometry relative="1" as="geometry" />
        </mxCell>
        <mxCell id="ZFAhumgFLEnGLtVaevDZ-58" value="约束计算代价函数" style="rounded=0;whiteSpace=wrap;html=1;" vertex="1" parent="1">
          <mxGeometry x="-391" y="-180" width="80" height="40" as="geometry" />
        </mxCell>
        <mxCell id="ZFAhumgFLEnGLtVaevDZ-70" value="" style="rounded=0;whiteSpace=wrap;html=1;fillColor=none;" vertex="1" parent="1">
          <mxGeometry x="-140" y="-211" width="150" height="400" as="geometry" />
        </mxCell>
        <mxCell id="ZFAhumgFLEnGLtVaevDZ-71" value="基于模式基础解解集的&lt;div&gt;&lt;span style=&quot;background-color: initial;&quot;&gt;展开计算优化&lt;/span&gt;&lt;div&gt;（第五章）&lt;/div&gt;&lt;/div&gt;" style="rounded=0;whiteSpace=wrap;html=1;dashed=1;dashPattern=1 2;" vertex="1" parent="1">
          <mxGeometry x="-140" y="-271" width="150" height="60" as="geometry" />
        </mxCell>
        <mxCell id="ZFAhumgFLEnGLtVaevDZ-72" style="edgeStyle=orthogonalEdgeStyle;rounded=0;orthogonalLoop=1;jettySize=auto;html=1;" edge="1" parent="1" source="ZFAhumgFLEnGLtVaevDZ-73" target="ZFAhumgFLEnGLtVaevDZ-75">
          <mxGeometry relative="1" as="geometry" />
        </mxCell>
        <mxCell id="ZFAhumgFLEnGLtVaevDZ-73" value="约束求解&lt;div&gt;计划&lt;/div&gt;" style="rounded=0;whiteSpace=wrap;html=1;" vertex="1" parent="1">
          <mxGeometry x="-104" y="-101" width="80" height="40" as="geometry" />
        </mxCell>
        <mxCell id="ZFAhumgFLEnGLtVaevDZ-74" style="edgeStyle=orthogonalEdgeStyle;rounded=0;orthogonalLoop=1;jettySize=auto;html=1;" edge="1" parent="1" source="ZFAhumgFLEnGLtVaevDZ-75" target="ZFAhumgFLEnGLtVaevDZ-76">
          <mxGeometry relative="1" as="geometry" />
        </mxCell>
        <mxCell id="ZFAhumgFLEnGLtVaevDZ-75" value="约束求解器" style="rounded=0;whiteSpace=wrap;html=1;" vertex="1" parent="1">
          <mxGeometry x="-104" y="-14" width="80" height="40" as="geometry" />
        </mxCell>
        <mxCell id="ZFAhumgFLEnGLtVaevDZ-76" value="复杂事件" style="rounded=0;whiteSpace=wrap;html=1;" vertex="1" parent="1">
          <mxGeometry x="-104" y="73" width="80" height="40" as="geometry" />
        </mxCell>
      </root>
    </mxGraphModel>
  </diagram>
</mxfile>
